HIERARCHY
ROOT Hips
{
	OFFSET -14.64140 90.27770 -84.91600
	CHANNELS 6 Xposition Yposition Zposition Zrotation Xrotation Yrotation
	JOINT Spine
	{
		OFFSET 0.00000 13.20850 -1.60436
		CHANNELS 3 Zrotation Xrotation Yrotation
		JOINT Spine1
		{
			OFFSET 0.00000 8.61716 0.00000
			CHANNELS 3 Zrotation Xrotation Yrotation
			JOINT Spine2
			{
				OFFSET 0.00000 8.61717 0.00000
				CHANNELS 3 Zrotation Xrotation Yrotation
				JOINT Spine3
				{
					OFFSET 0.00000 8.61717 0.00000
					CHANNELS 3 Zrotation Xrotation Yrotation
					JOINT Neck
					{
						OFFSET 0.00000 11.07920 1.10792
						CHANNELS 3 Zrotation Xrotation Yrotation
						JOINT Neck1
						{
							OFFSET 0.00000 7.08032 0.00000
							CHANNELS 3 Zrotation Xrotation Yrotation
							JOINT Head
							{
								OFFSET 0.00000 7.08031 0.00000
								CHANNELS 3 Zrotation Xrotation Yrotation
								End site
								{
									OFFSET 0.00000 0.00000 0.00000
								}
							}
						}
					}
					JOINT RightShoulder
					{
						OFFSET -0.01000 7.91373 5.19711
						CHANNELS 3 Zrotation Xrotation Yrotation
						JOINT RightArm
						{
							OFFSET -18.41580 0.00000 0.00000
							CHANNELS 3 Zrotation Xrotation Yrotation
							JOINT RightForeArm
							{
								OFFSET -29.11090 0.00000 0.00000
								CHANNELS 3 Zrotation Xrotation Yrotation
								JOINT RightHand
								{
									OFFSET -24.65040 0.00000 0.00000
									CHANNELS 3 Zrotation Xrotation Yrotation
									JOINT RightHandThumb1
									{
										OFFSET -5.35114 -0.85590 3.97906
										CHANNELS 3 Zrotation Xrotation Yrotation
										JOINT RightHandThumb2
										{
											OFFSET -4.52789 0.00000 0.00000
											CHANNELS 3 Zrotation Xrotation Yrotation
											JOINT RightHandThumb3
											{
												OFFSET -2.46976 0.00000 0.00000
												CHANNELS 3 Zrotation Xrotation Yrotation
												End site
												{
													OFFSET 0.00000 0.00000 0.00000
												}
											}
										}
									}
									JOINT RightHandIndex1
									{
										OFFSET -14.26970 0.00000 2.88139
										CHANNELS 3 Zrotation Xrotation Yrotation
										JOINT RightHandIndex2
										{
											OFFSET -5.48836 0.00000 0.00000
											CHANNELS 3 Zrotation Xrotation Yrotation
											JOINT RightHandIndex3
											{
												OFFSET -3.01859 0.00000 0.00000
												CHANNELS 3 Zrotation Xrotation Yrotation
												End site
												{
													OFFSET 0.00000 0.00000 0.00000
												}
											}
										}
									}
									JOINT RightHandMiddle1
									{
										OFFSET -14.26970 0.00000 -0.09147
										CHANNELS 3 Zrotation Xrotation Yrotation
										JOINT RightHandMiddle2
										{
											OFFSET -6.17441 0.00000 0.00000
											CHANNELS 3 Zrotation Xrotation Yrotation
											JOINT RightHandMiddle3
											{
												OFFSET -3.56743 0.00000 0.00000
												CHANNELS 3 Zrotation Xrotation Yrotation
												End site
												{
													OFFSET 0.00000 0.00000 0.00000
												}
											}
										}
									}
									JOINT RightHandRing1
									{
										OFFSET -12.69180 0.00000 -3.06433
										CHANNELS 3 Zrotation Xrotation Yrotation
										JOINT RightHandRing2
										{
											OFFSET -5.62556 0.00000 0.00000
											CHANNELS 3 Zrotation Xrotation Yrotation
											JOINT RightHandRing3
											{
												OFFSET -3.56744 0.00000 0.00000
												CHANNELS 3 Zrotation Xrotation Yrotation
												End site
												{
													OFFSET 0.00000 0.00000 0.00000
												}
											}
										}
									}
									JOINT RightHandPinky1
									{
										OFFSET -11.11390 0.00000 -6.03719
										CHANNELS 3 Zrotation Xrotation Yrotation
										JOINT RightHandPinky2
										{
											OFFSET -4.52789 0.00000 0.00000
											CHANNELS 3 Zrotation Xrotation Yrotation
											JOINT RightHandPinky3
											{
												OFFSET -2.46976 0.00000 0.00000
												CHANNELS 3 Zrotation Xrotation Yrotation
												End site
												{
													OFFSET 0.00000 0.00000 0.00000
												}
											}
										}
									}
								}
							}
						}
					}
					JOINT LeftShoulder
					{
						OFFSET 0.01000 7.91373 5.19711
						CHANNELS 3 Zrotation Xrotation Yrotation
						JOINT LeftArm
						{
							OFFSET 18.41580 0.00000 0.00000
							CHANNELS 3 Zrotation Xrotation Yrotation
							JOINT LeftForeArm
							{
								OFFSET 29.11090 0.00000 0.00000
								CHANNELS 3 Zrotation Xrotation Yrotation
								JOINT LeftHand
								{
									OFFSET 24.65040 0.00000 0.00000
									CHANNELS 3 Zrotation Xrotation Yrotation
									JOINT LeftHandThumb1
									{
										OFFSET 5.35114 -0.85590 3.97906
										CHANNELS 3 Zrotation Xrotation Yrotation
										JOINT LeftHandThumb2
										{
											OFFSET 4.52789 0.00000 0.00000
											CHANNELS 3 Zrotation Xrotation Yrotation
											JOINT LeftHandThumb3
											{
												OFFSET 2.46977 0.00000 0.00000
												CHANNELS 3 Zrotation Xrotation Yrotation
												End site
												{
													OFFSET 0.00000 0.00000 0.00000
												}
											}
										}
									}
									JOINT LeftHandIndex1
									{
										OFFSET 14.26970 0.00000 2.88139
										CHANNELS 3 Zrotation Xrotation Yrotation
										JOINT LeftHandIndex2
										{
											OFFSET 5.48836 0.00000 0.00000
											CHANNELS 3 Zrotation Xrotation Yrotation
											JOINT LeftHandIndex3
											{
												OFFSET 3.01859 0.00000 0.00000
												CHANNELS 3 Zrotation Xrotation Yrotation
												End site
												{
													OFFSET 0.00000 0.00000 0.00000
												}
											}
										}
									}
									JOINT LeftHandMiddle1
									{
										OFFSET 14.26970 0.00000 -0.09147
										CHANNELS 3 Zrotation Xrotation Yrotation
										JOINT LeftHandMiddle2
										{
											OFFSET 6.17440 0.00000 0.00000
											CHANNELS 3 Zrotation Xrotation Yrotation
											JOINT LeftHandMiddle3
											{
												OFFSET 3.56744 0.00000 0.00000
												CHANNELS 3 Zrotation Xrotation Yrotation
												End site
												{
													OFFSET 0.00000 0.00000 0.00000
												}
											}
										}
									}
									JOINT LeftHandRing1
									{
										OFFSET 12.69180 0.00000 -3.06433
										CHANNELS 3 Zrotation Xrotation Yrotation
										JOINT LeftHandRing2
										{
											OFFSET 5.62556 0.00000 0.00000
											CHANNELS 3 Zrotation Xrotation Yrotation
											JOINT LeftHandRing3
											{
												OFFSET 3.56744 0.00000 0.00000
												CHANNELS 3 Zrotation Xrotation Yrotation
												End site
												{
													OFFSET 0.00000 0.00000 0.00000
												}
											}
										}
									}
									JOINT LeftHandPinky1
									{
										OFFSET 11.11390 0.00000 -6.03719
										CHANNELS 3 Zrotation Xrotation Yrotation
										JOINT LeftHandPinky2
										{
											OFFSET 4.52789 0.00000 0.00000
											CHANNELS 3 Zrotation Xrotation Yrotation
											JOINT LeftHandPinky3
											{
												OFFSET 2.46976 0.00000 0.00000
												CHANNELS 3 Zrotation Xrotation Yrotation
												End site
												{
													OFFSET 0.00000 0.00000 0.00000
												}
											}
										}
									}
								}
							}
						}
					}
					JOINT pCube4
					{
						OFFSET 0.00000 10.91090 1.10792
						CHANNELS 3 Zrotation Xrotation Yrotation
						End site
						{
							OFFSET 0.00000 0.00000 0.00000
						}
					}
				}
			}
		}
	}
	JOINT RightUpLeg
	{
		OFFSET -9.98441 0.00000 0.00000
		CHANNELS 3 Zrotation Xrotation Yrotation
		JOINT RightLeg
		{
			OFFSET 0.00000 -42.11790 0.00000
			CHANNELS 3 Zrotation Xrotation Yrotation
			JOINT RightFoot
			{
				OFFSET 0.00000 -45.00020 -0.00001
				CHANNELS 3 Zrotation Xrotation Yrotation
				JOINT RightForeFoot
				{
					OFFSET 0.00000 -3.74820 0.00000
					CHANNELS 3 Zrotation Xrotation Yrotation
					JOINT RightToeBase
					{
						OFFSET 0.00000 0.06325 14.43120
						CHANNELS 3 Zrotation Xrotation Yrotation
						End site
						{
							OFFSET 0.00000 0.00000 0.00000
						}
					}
				}
			}
		}
	}
	JOINT LeftUpLeg
	{
		OFFSET 9.98441 0.00000 0.00000
		CHANNELS 3 Zrotation Xrotation Yrotation
		JOINT LeftLeg
		{
			OFFSET 0.00000 -42.11800 0.00000
			CHANNELS 3 Zrotation Xrotation Yrotation
			JOINT LeftFoot
			{
				OFFSET 0.00000 -45.00070 0.00000
				CHANNELS 3 Zrotation Xrotation Yrotation
				JOINT LeftForeFoot
				{
					OFFSET 0.00000 -3.74824 0.00000
					CHANNELS 3 Zrotation Xrotation Yrotation
					JOINT LeftToeBase
					{
						OFFSET 0.00000 0.06325 14.43110
						CHANNELS 3 Zrotation Xrotation Yrotation
						End site
						{
							OFFSET 0.00000 0.00000 0.00000
						}
					}
				}
			}
		}
	}
}
MOTION
Frames: 4
Frame Time: 0.050000
0.0005129187205532716 0.026008414178855962 -0.035956677250662754 0.021134722817496236 0.019223785387632655 -0.010473372808894404 -1.302783157147348 0.7380254602974297 -1.0276905290855303 -0.9672091116853894 3.8528839778045816 0.34983260372044933 -1.222630411721234 -1.7577236385496773 -0.8244267329071869 0.9522796654833402 0.5428739809844297 -0.7481464323045841 0.8039189495184917 12.399537700612376 -2.6740810915235858 -0.006607674849027401 -0.6714641792287653 -8.061797011084462 0.9152530844870457 -16.139759191914823 -0.6647571984126226 -4.589519795584787 1.4998785170179763 -15.664277982384368 72.79527197426522 22.973303285599787 3.662391932423015 2.296407294936562 2.025702983088069 41.42086844259727 21.141111180220356 -0.09636502127428814 -3.872563361625676 4.541165519241809 -0.12522993144498318 -1.613975110304886 0.023929872543093485 -0.04967437013640711 -56.235675604425495 0.01777918174391214 -0.003992900369230708 -56.243749110522366 -38.77180380959329 0.030999719819678247 -0.04554062774445473 -0.014986582190409848 0.023375295557534745 0.03749271579462355 0.026946657369475158 -0.034782825201915876 -0.04180957724657298 -36.64981161737487 0.04427794237792029 0.03183653010678657 0.008540683533204843 -0.009487061333981861 0.01085456181399609 0.00855355566254691 -0.008943298533126098 0.008560459564952026 -19.780963818581608 -0.017862711258290333 0.016224656839533266 -0.004833037972141392 0.014758178003561762 -0.018233512751846245 -0.020527051997218902 -0.03730483311417327 0.009935659546545676 24.014290463692397 0.0499649017208207 0.029195287882500934 28.908053896577986 -0.037114937644149436 0.0029049057743923876 28.862873117402263 -0.009582172683033538 -0.021788109808788002 3.598221351294069 0.9909524788329935 13.464221313371468 -71.78195514313526 26.39822748807154 -0.2157208981764902 -3.889936019218957 -8.763200546363825 -42.27618119051177 -14.180317621362581 -0.6595790652694322 2.905331274206371 -0.49028932279497706 0.07398151482807451 -8.171389516129448 0.040325370645905335 -0.04490299458895736 44.58700866717258 0.03485981552534849 -0.03168182215260349 44.55164486007605 12.478169432799643 0.028118860804867207 -0.02734478989088008 0.008198906115198346 0.03757985807835899 0.022426665000006774 -0.0059764298044702345 -0.027538609197394964 0.013380413250009701 11.08124548026574 -0.047211799266717924 0.024925632670578606 0.04663862560277525 0.00988045813743826 0.025013052615185858 0.0062239705411780595 0.020559625144433165 -0.012371832737482795 4.78626818442384 0.01767783153299871 0.023609514557242983 -0.03402326949065064 -0.005362977129172701 0.00905039428266821 0.019053100947969342 0.04422817927477776 -0.02739568038377239 -5.5609420488669 -0.03275783581626032 -0.0021957237169599342 -6.722720244349307 0.02592715796158334 0.005575434220870703 -6.7506150169261 -0.0013355544124384043 -0.009266748988562659 -0.039365976135983256 0.02470707545821265 0.034007110181808055 8.009062243258496 3.476319277752018 -19.200592290544847 0.005654134530183282 10.38723449638155 0.032556914007982156 -5.602299878467039 -15.650732821993268 3.1599639357476796 -0.01887044176794529 -0.03345583966577126 0.025667394698062708 0.04488468000301799 4.706109660731601 0.02073828753111256 12.483689174290229 -8.203413920459791 6.906494310715092 -0.026322532110272665 46.38723537312549 -0.02942813727204545 -4.307690849194019 -14.712266101068657 -3.8164334239821627 0.012076603738945533 -0.014296264948819012 -0.018335535727637037 -0.031914554021605444 -10.781540884831788 -0.03145980897501587 
-0.0253116691799789 0.002784025248262491 -0.013523210881569875 0.034273771471391566 -0.0039373381876302805 -0.04865701726665207 -1.2140342897408212 0.8586527814353259 -0.9898480108736081 -0.896623488313993 3.8541051122077112 0.3847286402796302 -1.2336966014091217 -1.7430569825749218 -0.7611336457416196 0.9939612463095255 0.4983933990902118 -0.7494140742935596 0.9344362995005102 12.35337229817209 -2.8553382308367192 0.03581280337790134 -0.784927313682942 -8.565965797560304 1.0168074020164477 -16.357170156277117 -0.6929721480090649 -4.702616674075046 1.4953587023692057 -15.782974073557543 73.01553205843581 22.61593979518662 3.4195191294039153 2.0041873001349932 1.9972404371388182 42.00950524467902 20.66438530578825 -0.11696142876977121 -3.8319605475782943 4.554273508451611 -0.09002641082688645 -1.5846003641853206 0.04608994023339766 0.032489105158394586 -56.189498146617716 0.04637276887183393 -0.02847916099061302 -56.22085559055629 -38.807955861026684 -0.018786011777277324 -0.03010803117200479 -0.0198990733170448 -0.011012013059304989 0.006321476052267298 -0.020277957887525136 0.019318934830865196 0.0402931687166869 -36.73962397631892 -0.04935493264812743 -0.028644965005768002 -0.014411700540580354 0.028989022735942015 -0.04169130705144951 -0.04528608701942157 -0.04601068059623208 0.025123041402888523 -19.742038403274986 0.01071645413340346 0.026628899415386143 -0.025267350155528272 -0.023011108535722337 0.04026978127722743 0.02056187756711164 0.012455197655530275 -0.02022558671284683 24.038806342323817 0.04922945609301371 0.003293408247137627 28.91004656257538 -0.004438723727237154 0.018864928068829664 28.879574701140402 -0.04498146272832298 -0.00442521165841138 3.5157007127393682 0.9571103115671518 13.516230983466398 -71.99186988527312 26.87810923387569 -0.05862253236512233 -2.222636522372824 -9.002953848000118 -42.67663602081338 -13.976297546609327 -0.7339726149878527 3.1807255754518504 -0.4442144596614884 0.022942531525436502 -8.091541631700505 -0.010021108712479526 -0.04057349467229718 44.571531945282814 -0.009242266473334653 0.02825987521882617 44.54792669612911 12.468047480702733 -0.04661778331111298 0.03876889221886905 0.004060602067619738 -0.027942608421326377 0.005096226844662016 0.03866714385009119 0.022291895371880702 0.013863597491551343 11.127846131707134 0.01818325446867435 0.005396707079895479 -0.007864784560377442 -0.029925582576894403 0.018092115140738853 0.024408614492186974 0.0347212585619712 -0.0008913492833868135 4.772096589195678 -0.034983199334246665 -0.028373245779423364 0.01919864349887633 -0.016877436822088376 0.03109799531188945 0.0418345594097786 -0.043133059649272255 0.008264063239780545 -5.631405589357315 -0.006019281840536304 -0.008321354497627213 -6.72810244144847 0.03049992276520651 0.013204322650371712 -6.74768846250707 0.031346795389814976 -0.00638618555424882 0.03838179406684414 0.023323855957932148 -0.016125210985149033 8.031519404049083 3.4822638460717728 -19.266183768482882 0.02511335960938074 10.377777245390597 0.05748111105816084 -5.613051068026438 -15.669551247674134 3.2067374970063445 0.017417131815135663 0.012052789098188148 0.03766739188728604 0.023263685543102163 4.647844877919787 0.012140711781093057 12.446008085971833 -8.19992043824398 6.931847993234436 0.030542861293190095 46.36096260765319 -0.040625744787825345 -4.339988952916278 -14.7653334260253 -3.865536043133191 0.03484792684859015 -0.0034893077912543833 -0.021358606911313305 -0.048678967186802986 -10.706894341516671 0.0033637733350924686 
0.011546528171815814 0.015032174055998763 0.024033906833564614 0.033294785536888534 0.021959085972829626 -0.012496133210175075 -1.18418920519462 0.8671011455306157 -0.9963779969041856 -0.9204883659331822 3.9135395044698282 0.3398191465601335 -1.1792254220396272 -1.6591290922125088 -0.7491130382198792 1.0193761590746344 0.5413508892866941 -0.7579780050351639 1.003386401084446 12.348844586025752 -3.0694441728583683 0.13597443022221267 -0.8181202795148839 -8.931487460575472 1.160179054520267 -16.55573840238465 -0.7176791217377912 -4.84010160678731 1.5794787050306378 -15.949172105578858 73.11956975611776 22.307335455726474 2.8771825735174184 1.5431686951973982 1.9176876324519503 42.37550380216712 20.440973060469954 -0.13031656556585183 -3.8205214366627995 4.516834137929393 -0.08286647384816248 -1.56666495892871 0.02917861378151172 -0.03289497386800199 -56.206179265098584 0.04760568510038016 -0.007722982399770839 -56.2572243146319 -38.7679493152294 0.0023961980652345755 -0.01028396364646162 0.039116932521987925 -0.016371787393158973 0.015391432347840673 -0.026976635704346 -0.01566133869137122 0.03319517285490764 -36.743413657342884 -0.029802793434939603 0.02371785264751729 0.044878523275754895 -0.004405443179705049 0.02828349356334094 -0.006260532384100345 -0.03365059291746309 -0.0247614575314241 -19.731893227327596 0.04614120339020994 -0.025658764422921518 0.007843661437213541 0.032589646983581785 -0.024185865738688403 0.002161449364506639 0.0053468437750947674 -0.049981830929583734 24.05339008118907 -0.006809271169142507 0.009536577947358944 28.8847224260364 -0.017452249919148108 0.031095408931416425 28.84765287439587 -0.003827771547139575 -0.006577445384206683 3.4857382770824303 0.9254426834770234 13.500166224822236 -72.20823385388358 27.28891377530852 0.2119186966027984 -1.196950637138586 -9.018622376907498 -42.86728656280461 -13.879328364172958 -0.7159425418690057 3.2067095590757333 -0.46116529752414426 0.06764674178987358 -8.146386291261171 -0.01135604733818745 0.001541951757956072 44.56226971391219 -0.0035682232672529465 -0.03861799611521264 44.541680934713575 12.457877602149846 -0.03836556868331499 -0.012616067208929722 0.005621213258556914 0.02880451478928221 0.03877555613868536 -0.03721416298878427 -0.02607033889051428 0.03727985962934249 11.080413568601013 0.006547071717214501 0.04206806568186486 -0.010839776110158624 -0.016220186113218543 0.014001292997843563 -0.03499600075074136 -0.031794917925764506 -0.007420527887817461 4.800212239595492 0.013525390755741341 0.019593470549558817 -0.03639959525028942 -0.014620438831256714 0.027822815936398126 -0.031759492174520995 -0.013947390584780825 0.02539425671984334 -5.623333735403734 -0.04038700783273474 -0.028637144114552284 -6.71771992778221 0.029806676507070196 -0.010481772166387113 -6.709002225211828 0.01158230359331663 0.03149660841110844 0.04862120334451042 -0.04361041399697263 -0.014307191390910941 8.028039805004061 3.5357663255713865 -19.19911478897656 0.029462720892623598 10.369903154528522 0.05165422299845497 -5.58799253838566 -15.707000967422243 3.1942886189396 -0.015784444075226767 -0.03858689498322188 0.03445581942343421 0.02589857297129564 4.651998101905681 -0.039231178585944465 12.441788466746967 -8.252773207613183 6.867326362581775 -0.03964428043476701 46.40939958822112 -0.048027076347521076 -4.3203017835754 -14.794317272044275 -3.877495868952709 -0.013257932634460666 0.04476694392004256 0.03869701928495 -0.015344258188430583 -10.748266078199862 -0.02265774522051027 
-0.004741005297843104 0.029414609621702472 0.020858584282715326 0.03015944693390342 0.01351611344220739 -0.02656628230265272 -1.1672954065142542 0.859164729923936 -1.0205305449193611 -0.9104118662026142 3.8440539433435736 0.41180771239874014 -1.2516876230470684 -1.7237175209167772 -0.8003907844029665 1.0856318053013922 0.5064143913948327 -0.7973051833174241 0.9905208473383122 12.290313138123897 -3.254522600800245 0.15000399218897933 -0.9302189960660018 -9.20476618457477 1.2274267509291468 -16.756860197417463 -0.7520539416536335 -4.90461533075212 1.5609097479243625 -16.037803695165568 72.95246629262466 22.003562363440807 2.0609475395527097 1.0879043054190949 1.6179227078481184 42.324537800164144 20.230575396569222 -0.07396993477813586 -3.856454340318145 4.515102561137735 -0.11504016779453465 -1.5988055140865927 -0.0074253619295957035 -0.024260111359295386 -56.2633505185801 -0.011961945302638112 0.04229818666025739 -56.263647012192315 -38.75341727755588 0.021722355818233414 -0.033882476901651255 0.020657088547948614 -0.014769550750557345 -0.0014932873684373226 -0.006577764611806778 0.002688778342731232 -0.010873207957426793 -36.686306028063306 -0.018943212664910402 -0.03318739637064172 0.02192225133816073 -0.017244637066975117 -0.03361510501447545 0.043377641704030905 0.023093648869668602 0.00018902597484410412 -19.7164542645359 -0.0008927923855499932 0.029599116550067223 -0.016068147160344482 -0.009953662163387453 0.018656821237540786 0.020156625730389784 0.03412871146337261 0.03485356899291162 24.095926805985442 -0.007157108183489175 -0.020185496501293344 28.850357538584188 -0.044640280805629685 0.02394875471552993 28.87771331099496 -0.03718544455135369 0.041607431766856155 3.5561002915043995 0.9727944951024294 13.607513960794694 -72.23772509250429 27.678025082550494 0.439933624623262 -0.44978212935823075 -9.160347421492354 -42.69837498138268 -13.888448633333127 -0.7700160885777445 3.303299739418182 -0.4978231895702761 0.039683658277198997 -8.116877991217006 0.013162546839472511 0.009528948162852297 44.61430752997753 0.028083158843397474 -0.01761071914069443 44.54102223094036 12.439425013108636 -0.04009581629970077 0.016126615413661404 0.04705787163586191 0.012046079440169428 -0.029033768840729838 0.015844700716357976 -0.04704981894979271 0.04519259482451918 11.119369245753042 -0.04871835911626453 0.04008492508894358 0.039334546333295674 0.015939044719458454 -0.004665838125288989 0.0314042268172725 0.014465497255138777 -0.04054057966511421 4.726945999447443 0.007006578058183476 -0.011892048434536994 -0.03899117001523758 -0.03818189366343998 0.02262692843560185 0.010295426483295202 0.003995490252713092 -0.04882296272852239 -5.577989247732962 0.02795150088636321 -0.0415614261095158 -6.745813296589783 -0.00867659464819923 -0.03348537894354684 -6.713779509454749 0.030274379425919 -0.002083935875017471 -0.04071970401307287 -0.04801358791066503 0.03943070843842651 8.021979952959061 3.524534827772321 -19.255084179708405 -0.0035338172956244696 10.442935981414744 0.014362773415449864 -5.586982786711596 -15.670793460796745 3.2124443200434234 0.04798630266187185 0.01889736857651084 -0.011070186843186777 -0.042732303439453605 4.664846534249523 0.034431197977318376 12.487786986566853 -8.192331723102876 6.903106875955337 -0.011055608053982867 46.370564223950375 -0.0348096867138079 -4.331160363091937 -14.735010395194019 -3.8003222150047042 0.01793512252754842 0.007170577241277404 -0.024172286453726093 0.0064914539604204145 -10.780590127921544 0.005298833999450942 
